<?xml version="1.0" encoding="utf-8"?>
<!-- Generator: Adobe Illustrator 25.2.1, SVG Export Plug-In . SVG Version: 6.00 Build 0)  -->
<svg version="1.1" id="arrow_1_" xmlns="http://www.w3.org/2000/svg" xmlns:xlink="http://www.w3.org/1999/xlink" x="0px" y="0px"
	 viewBox="0 0 500 500" style="enable-background:new 0 0 500 500;" xml:space="preserve">
<style type="text/css">
	.st0{fill:#677F91;}
</style>
<path class="st0" d="M250,500C112.1,500,0,387.8,0,250S112.1,0,250,0c137.8,0,250,112.2,250,250S387.8,500,250,500z M250,37.5
	C132.8,37.5,37.5,132.8,37.5,250S132.8,462.5,250,462.5c117.2,0,212.5-95.3,212.5-212.5S367.2,37.5,250,37.5z M225.1,361.2l100-100
	c7.3-7.3,7.3-19.2,0-26.5l-100-100c-7.3-7.3-19.2-7.3-26.5,0s-7.3,19.2,0,26.5l86.7,86.7l-86.7,86.7c-7.3,7.3-7.3,19.2,0,26.5
	c3.7,3.7,8.5,5.5,13.3,5.5S221.4,364.8,225.1,361.2z"/>
</svg>
