<?xml version="1.0" encoding="utf-8"?>
<!-- Generator: Adobe Illustrator 25.2.1, SVG Export Plug-In . SVG Version: 6.00 Build 0)  -->
<svg version="1.1" id="badge" xmlns="http://www.w3.org/2000/svg" xmlns:xlink="http://www.w3.org/1999/xlink" x="0px" y="0px"
	 viewBox="0 0 500 140" style="enable-background:new 0 0 500 140;" xml:space="preserve">
<style type="text/css">
	.st0{fill:#FFFFFF;}
</style>
<path id="background" d="M480,140H20c-11,0-20-9-20-20V20C0,9,9,0,20,0h460c11,0,20,9,20,20v100C500,131,491,140,480,140z"/>
<path id="content" class="st0" d="M101.8,70.9c0.1-7.2,3.9-13.8,10-17.6c-3.9-5.5-10.2-8.9-16.9-9.1c-7.1-0.7-14,4.3-17.7,4.3
	c-3.7,0-9.3-4.2-15.3-4.1C54,44.7,46.8,49,42.9,56c-8.2,14.2-2.1,35.1,5.8,46.5c3.9,5.6,8.5,11.9,14.5,11.7
	c5.9-0.2,8.1-3.8,15.2-3.8c7,0,9.1,3.8,15.2,3.6c6.3-0.1,10.3-5.6,14.1-11.3c2.8-4,5-8.4,6.4-13.1C106.6,86.4,101.8,79.1,101.8,70.9
	z M90.2,36.6c3.4-4.1,5.1-9.4,4.7-14.8c-5.3,0.6-10.1,3.1-13.6,7c-3.4,3.9-5.2,9-4.8,14.3C81.8,43.2,86.8,40.8,90.2,36.6z
	 M176.1,99.9H156l-4.8,14.2h-8.5l19-52.7h8.8l19,52.7h-8.6L176.1,99.9z M158.1,93.4H174l-7.8-23.1H166L158.1,93.4z M230.6,95
	c0,11.9-6.4,19.6-16,19.6c-5,0.3-9.7-2.3-12.1-6.7h-0.2v19h-7.9V75.8h7.6v6.4h0.1c2.5-4.3,7.2-6.9,12.2-6.8
	C224.2,75.4,230.6,83.1,230.6,95z M222.5,95c0-7.8-4-12.9-10.1-12.9c-6,0-10.1,5.2-10.1,12.9c0,7.7,4,12.9,10.1,12.9
	S222.5,102.8,222.5,95z M272.9,95c0,11.9-6.4,19.6-16,19.6c-5,0.3-9.7-2.3-12.1-6.7h-0.2v19h-7.9V75.8h7.6v6.4h0.1
	c2.5-4.3,7.2-6.9,12.2-6.8C266.5,75.4,272.9,83.1,272.9,95z M264.8,95c0-7.8-4-12.9-10.1-12.9c-6,0-10.1,5.2-10.1,12.9
	c0,7.7,4,12.9,10.1,12.9S264.8,102.8,264.8,95L264.8,95z M300.8,99.5c0.6,5.2,5.7,8.7,12.6,8.7c6.6,0,11.4-3.4,11.4-8.1
	c0-4.1-2.9-6.5-9.7-8.2l-6.8-1.6c-9.7-2.3-14.2-6.9-14.2-14.2c0-9.1,7.9-15.3,19.2-15.3c11.1,0,18.8,6.2,19,15.3h-8
	c-0.5-5.3-4.8-8.4-11.2-8.4c-6.3,0-10.7,3.2-10.7,7.9c0,3.7,2.8,5.9,9.6,7.6l5.8,1.4c10.8,2.6,15.3,6.9,15.3,14.6
	c0,9.9-7.8,16-20.3,16c-11.7,0-19.6-6-20.1-15.5L300.8,99.5z M350.1,66.7v9.1h7.3V82h-7.3v21.2c0,3.3,1.5,4.8,4.7,4.8
	c0.9,0,1.7-0.1,2.6-0.2v6.2c-1.4,0.3-2.9,0.4-4.4,0.4c-7.8,0-10.8-2.9-10.8-10.4V82h-5.6v-6.2h5.6v-9.1H350.1z M361.7,95
	c0-12.1,7.1-19.7,18.2-19.7s18.2,7.6,18.2,19.7s-7,19.7-18.2,19.7C368.7,114.6,361.7,107.1,361.7,95z M390.1,95
	c0-8.3-3.8-13.2-10.2-13.2s-10.2,4.9-10.2,13.2c0,8.3,3.8,13.2,10.2,13.2S390.1,103.3,390.1,95L390.1,95z M404.6,75.8h7.5v6.5h0.2
	c1-4.2,4.9-7.1,9.2-6.9c0.9,0,1.8,0.1,2.7,0.3v7.4c-1.1-0.4-2.3-0.5-3.5-0.5c-4.4-0.2-8.1,3.2-8.3,7.6c0,0.4,0,0.8,0,1.2v22.8h-7.9
	L404.6,75.8z M460.5,102.9c-1.1,7-7.8,11.8-16.5,11.8c-11.2,0-18.1-7.5-18.1-19.5s7-19.9,17.8-19.9c10.6,0,17.3,7.3,17.3,18.9v2.7
	h-27.1v0.5c-0.5,5.5,3.6,10.4,9.1,10.8c0.4,0,0.8,0,1.2,0c3.8,0.4,7.4-1.8,8.9-5.4L460.5,102.9z M433.9,91.4h19.2
	c0.3-5.1-3.6-9.4-8.7-9.7c-0.2,0-0.5,0-0.7,0C438.3,81.7,433.9,86,433.9,91.4L433.9,91.4z M157.1,21.9c6.2-0.4,11.5,4.2,12,10.4
	c0.1,0.7,0,1.5-0.1,2.2c0,8.1-4.4,12.7-11.9,12.7H148V21.9L157.1,21.9L157.1,21.9z M151.9,43.6h4.8c4.4,0.3,8.2-3.1,8.4-7.5
	c0-0.5,0-1.1-0.1-1.6c0.6-4.4-2.5-8.4-6.8-9c-0.5-0.1-1-0.1-1.5-0.1h-4.8L151.9,43.6L151.9,43.6z M173.5,37.6
	c-0.5-5,3.2-9.4,8.1-9.9s9.4,3.2,9.9,8.1c0.1,0.6,0.1,1.1,0,1.7c0.5,5-3.2,9.4-8.1,9.9c-5,0.5-9.4-3.2-9.9-8.1
	C173.4,38.8,173.4,38.2,173.5,37.6z M187.6,37.6c0-4.1-1.9-6.6-5.1-6.6c-3.3,0-5.1,2.4-5.1,6.6c0,4.2,1.8,6.6,5.1,6.6
	C185.7,44.2,187.6,41.8,187.6,37.6L187.6,37.6z M215.4,47.2h-3.9l-3.9-14.1h-0.3l-3.9,14.1h-3.9l-5.3-19.1h3.8l3.4,14.6h0.3
	l3.9-14.6h3.6l3.9,14.6h0.3l3.4-14.6h3.8L215.4,47.2z M225.1,28.1h3.6v3h0.3c1-2.2,3.3-3.6,5.7-3.4c3.4-0.3,6.4,2.3,6.7,5.7
	c0,0.5,0,0.9,0,1.4v12.4h-3.8V35.8c0-3.1-1.3-4.6-4.1-4.6c-2.4-0.1-4.5,1.8-4.6,4.2c0,0.2,0,0.4,0,0.7v11.2h-3.8L225.1,28.1z
	 M247.3,20.6h3.8v26.5h-3.8V20.6z M256.3,37.6c-0.5-5,3.2-9.4,8.1-9.9c5-0.5,9.4,3.2,9.9,8.1c0.1,0.6,0.1,1.1,0,1.7
	c0.5,5-3.2,9.4-8.1,9.9s-9.4-3.2-9.9-8.1C256.3,38.8,256.3,38.2,256.3,37.6z M270.4,37.6c0-4.1-1.9-6.6-5.1-6.6
	c-3.3,0-5.1,2.4-5.1,6.6c0,4.2,1.8,6.6,5.1,6.6C268.6,44.2,270.4,41.8,270.4,37.6z M278.3,41.8c0-3.4,2.6-5.4,7.1-5.7l5.2-0.3v-1.6
	c0-2-1.3-3.2-3.9-3.2c-2.1,0-3.6,0.8-4,2.1H279c0.4-3.3,3.5-5.4,7.8-5.4c4.8,0,7.5,2.4,7.5,6.4v13h-3.6v-2.7h-0.3
	c-1.2,2-3.4,3.1-5.7,3c-3.2,0.3-6-2-6.3-5.1C278.3,42.2,278.3,42,278.3,41.8z M290.6,40.1v-1.6l-4.7,0.3c-2.6,0.2-3.8,1.1-3.8,2.8
	s1.5,2.7,3.5,2.7c2.5,0.3,4.7-1.6,4.9-4C290.6,40.2,290.6,40.2,290.6,40.1z M299.3,37.6c0-6,3.1-9.9,7.9-9.9
	c2.4-0.1,4.7,1.2,5.9,3.3h0.3V20.5h3.8V47h-3.6v-3h-0.3c-1.2,2.1-3.5,3.4-6,3.3C302.3,47.5,299.3,43.7,299.3,37.6z M303.2,37.6
	c0,4,1.9,6.5,5.1,6.5s5.1-2.5,5.1-6.5s-2-6.5-5.1-6.5C305.1,31.2,303.2,33.6,303.2,37.6L303.2,37.6z M332.7,37.6
	c-0.5-5,3.2-9.4,8.1-9.9s9.4,3.2,9.9,8.1c0.1,0.6,0.1,1.1,0,1.7c0.5,5-3.2,9.4-8.1,9.9c-5,0.5-9.4-3.2-9.9-8.1
	C332.6,38.8,332.6,38.2,332.7,37.6z M346.8,37.6c0-4.1-1.9-6.6-5.1-6.6c-3.3,0-5.1,2.4-5.1,6.6c0,4.2,1.8,6.6,5.1,6.6
	C345,44.2,346.8,41.8,346.8,37.6z M355.8,28.1h3.6v3h0.3c1-2.2,3.3-3.6,5.7-3.4c3.4-0.3,6.4,2.3,6.7,5.7c0,0.5,0,0.9,0,1.4v12.4
	h-3.8V35.8c0-3.1-1.3-4.6-4.1-4.6c-2.4-0.1-4.5,1.8-4.6,4.2c0,0.2,0,0.4,0,0.7v11.2h-3.8L355.8,28.1L355.8,28.1z M393.3,23.3v4.8
	h4.1v3.2h-4.1v9.8c0,2,0.8,2.9,2.7,2.9c0.5,0,1,0,1.4-0.1V47c-0.7,0.1-1.4,0.2-2,0.2c-4.2,0-5.9-1.5-5.9-5.2V31.2h-3V28h3v-4.8h3.8
	V23.3z M402.5,20.6h3.7v10.5h0.3c1-2.3,3.4-3.6,5.8-3.4c3.5-0.2,6.4,2.5,6.6,5.9c0,0.4,0,0.8,0,1.2v12.3h-3.8V35.7
	c0-3-1.4-4.6-4.1-4.6c-2.5-0.2-4.6,1.6-4.8,4.1c0,0.3,0,0.5,0,0.8v11.2h-3.8L402.5,20.6z M440.9,42c-1.1,3.6-4.5,5.9-8.3,5.5
	c-4.8,0.1-8.8-3.7-8.9-8.4c0-0.5,0-0.9,0.1-1.4c-0.6-4.8,2.7-9.3,7.6-9.9c0.4-0.1,0.8-0.1,1.2-0.1c5.3,0,8.5,3.6,8.5,9.6v1.3h-13.5
	v0.2c-0.2,2.8,1.8,5.2,4.6,5.5c0.2,0,0.3,0,0.5,0c1.8,0.2,3.6-0.7,4.5-2.3L440.9,42z M427.7,35.9h9.6c0.2-2.5-1.7-4.7-4.3-4.9
	c-0.1,0-0.3,0-0.4,0C429.9,31,427.7,33.1,427.7,35.9C427.7,35.8,427.7,35.8,427.7,35.9L427.7,35.9z"/>
</svg>
