<?xml version="1.0" encoding="utf-8"?>
<!-- Generator: Adobe Illustrator 25.2.1, SVG Export Plug-In . SVG Version: 6.00 Build 0)  -->
<svg version="1.1" id="badge" xmlns="http://www.w3.org/2000/svg" xmlns:xlink="http://www.w3.org/1999/xlink" x="0px" y="0px"
	 viewBox="0 0 500 140" style="enable-background:new 0 0 500 140;" xml:space="preserve">
<style type="text/css">
	.st0{fill:#FFFFFF;}
	.st1{fill:url(#shape_blue_1_);}
	.st2{fill:url(#shape_yellow_1_);}
	.st3{fill:url(#shape_red_1_);}
	.st4{fill:url(#shape_green_1_);}
</style>
<path id="background" d="M480,140H20c-11,0-20-9-20-20V20C0,9,9,0,20,0h460c11,0,20,9,20,20v100C500,131,491,140,480,140z"/>
<path id="text" class="st0" d="M163.7,44.6c-3.3,0-6.2-1.2-8.5-3.5s-3.5-5.2-3.5-8.6s1.2-6.3,3.5-8.6s5.2-3.5,8.5-3.5
	c1.7,0,3.3,0.3,4.8,1s2.7,1.5,3.7,2.6l0.2,0.3l-2.5,2.5l-0.3-0.3c-1.4-1.7-3.4-2.5-5.9-2.5c-2.3,0-4.2,0.8-5.9,2.4
	c-1.7,1.6-2.5,3.6-2.5,6.2c0,2.5,0.8,4.6,2.5,6.2c1.6,1.6,3.6,2.4,5.9,2.4c2.4,0,4.4-0.8,6-2.4c0.9-0.9,1.5-2.3,1.7-3.9h-8.1v-3.5
	h11.6l0.1,0.3c0.1,0.6,0.2,1.2,0.2,1.8c0,3.2-1,5.8-2.9,7.8C170,43.5,167.2,44.6,163.7,44.6z M192.4,44.1h-13.9V20.9h13.9v3.5h-10.2
	v6.4h9.2v3.5h-9.2v6.4h10.2V44.1z M204.6,44.1H201V24.4h-6.3v-3.5h16.2v3.5h-6.3L204.6,44.1L204.6,44.1z M224.9,44.1h-3.6V20.9h3.6
	V44.1z M237.7,44.1h-3.6V24.4h-6.3v-3.5H244v3.5h-6.3V44.1z M264.7,44.6c-3.4,0-6.2-1.2-8.5-3.5c-2.3-2.3-3.4-5.2-3.4-8.6
	c0-3.4,1.2-6.3,3.4-8.6c2.3-2.3,5.1-3.5,8.5-3.5s6.2,1.2,8.5,3.5s3.4,5.2,3.4,8.6c0,3.4-1.2,6.3-3.4,8.6l0,0
	C270.9,43.5,268,44.6,264.7,44.6z M258.8,38.7c1.6,1.6,3.5,2.4,5.8,2.4s4.2-0.8,5.8-2.4c1.6-1.6,2.4-3.7,2.4-6.2s-0.8-4.6-2.4-6.2
	c-1.6-1.6-3.5-2.4-5.8-2.4s-4.3,0.8-5.8,2.4c-1.6,1.6-2.4,3.7-2.4,6.2S257.2,37.1,258.8,38.7L258.8,38.7z M298,44.1h-3.6l-10.9-17.6
	l0.1,3.2v14.4H280V20.9h4.1l10.4,16.7l-0.1-3.2V20.9h3.6V44.1z M397.8,107.5h7V60.6h-7V107.5z M460.8,77.5l-8,20.3h-0.2l-8.3-20.3
	h-7.5l12.5,28.4l-7.1,15.8h7.3l19.2-44.2L460.8,77.5z M421.1,102.2c-2.3,0-5.5-1.1-5.5-4c0-3.6,4-5,7.4-5c3.1,0,4.5,0.7,6.4,1.6
	C428.9,99.1,425.2,102.2,421.1,102.2 M422,76.5c-5.1,0-10.3,2.2-12.5,7.2l6.2,2.6c1.3-2.6,3.8-3.4,6.4-3.4c3.6,0,7.3,2.2,7.4,6v0.5
	c-1.3-0.7-4-1.8-7.3-1.8c-6.7,0-13.5,3.7-13.5,10.5c0,6.3,5.5,10.3,11.6,10.3c4.7,0,7.3-2.1,8.9-4.6h0.2v3.6h6.8v-18
	C436.2,81.1,430,76.5,422,76.5 M378.8,83.2h-9.9V67.1h9.9c5.2,0,8.2,4.3,8.2,8C387,78.8,384,83.2,378.8,83.2 M378.6,60.6h-16.8v46.9
	h7V89.7h9.8c7.8,0,15.4-5.6,15.4-14.6C394,66.2,386.3,60.6,378.6,60.6 M287.2,102.2c-4.8,0-8.9-4-8.9-9.6s4-9.7,8.9-9.7
	c4.8,0,8.5,4.1,8.5,9.7C295.7,98.1,292,102.2,287.2,102.2 M295.2,80.1H295c-1.6-1.9-4.6-3.6-8.4-3.6c-8,0-15.3,7-15.3,16
	c0,8.9,7.3,15.9,15.3,15.9c3.8,0,6.8-1.7,8.4-3.6h0.2v2.3c0,6.1-3.3,9.4-8.5,9.4c-4.3,0-6.9-3.1-8-5.7l-6.1,2.5
	c1.8,4.2,6.4,9.4,14.1,9.4c8.2,0,15.2-4.8,15.2-16.6V77.5h-6.6v2.6H295.2z M306.7,107.5h7V60.6h-7V107.5z M324,92
	c-0.2-6.2,4.8-9.3,8.3-9.3c2.8,0,5.1,1.4,5.9,3.4L324,92z M345.8,86.7c-1.3-3.6-5.4-10.1-13.6-10.1s-15,6.5-15,15.9
	c0,8.9,6.8,15.9,15.8,15.9c7.3,0,11.5-4.5,13.3-7.1l-5.4-3.6c-1.8,2.7-4.3,4.4-7.9,4.4s-6.1-1.6-7.7-4.8l21.3-8.8L345.8,86.7z
	 M176,81.5v6.8h16.2c-0.5,3.8-1.8,6.6-3.7,8.5c-2.4,2.4-6,5-12.5,5c-10,0-17.8-8-17.8-18s7.8-18,17.8-18c5.4,0,9.3,2.1,12.2,4.8
	l4.8-4.8c-4-3.9-9.4-6.8-17-6.8c-13.6,0-25.1,11.1-25.1,24.8c0,13.6,11.5,24.8,25.1,24.8c7.4,0,12.9-2.4,17.3-6.9
	c4.5-4.5,5.9-10.7,5.9-15.8c0-1.6-0.1-3-0.4-4.2L176,81.5z M217.5,102.2c-4.8,0-9-4-9-9.7s4.2-9.7,9-9.7s9,3.9,9,9.7
	C226.5,98.2,222.3,102.2,217.5,102.2 M217.5,76.6c-8.8,0-16,6.7-16,15.9c0,9.2,7.2,15.9,16,15.9s16-6.8,16-15.9
	C233.5,83.3,226.3,76.6,217.5,76.6 M252.4,102.2c-4.8,0-9-4-9-9.7s4.2-9.7,9-9.7c4.8,0,9,3.9,9,9.7
	C261.4,98.2,257.2,102.2,252.4,102.2 M252.4,76.6c-8.8,0-16,6.7-16,15.9c0,9.2,7.2,15.9,16,15.9c8.8,0,16-6.8,16-15.9
	C268.4,83.3,261.2,76.6,252.4,76.6"/>
<linearGradient id="shape_blue_1_" gradientUnits="userSpaceOnUse" x1="11.4222" y1="-488.9993" x2="14.2333" y2="-488.9993" gradientTransform="matrix(-22.3765 22.3765 22.3765 22.3765 11276.4199 10714.2139)">
	<stop  offset="0" style="stop-color:#00A0FF"/>
	<stop  offset="6.574450e-03" style="stop-color:#00A1FF"/>
	<stop  offset="0.2601" style="stop-color:#00BEFF"/>
	<stop  offset="0.5122" style="stop-color:#00D2FF"/>
	<stop  offset="0.7604" style="stop-color:#00DFFF"/>
	<stop  offset="1" style="stop-color:#00E3FF"/>
</linearGradient>
<path id="shape_blue" class="st1" d="M36.1,23.3c-1.1,1.2-1.7,2.9-1.7,5.3l0,0v82.9c0,2.3,0.6,4.1,1.7,5.3l0,0l0.3,0.3l46.4-46.4V70
	v-0.6L36.4,23L36.1,23.3z"/>
<linearGradient id="shape_yellow_1_" gradientUnits="userSpaceOnUse" x1="-0.9952" y1="-484.6037" x2="1.8159" y2="-484.6037" gradientTransform="matrix(-32.2625 0 0 32.2625 91.7084 15704.5283)">
	<stop  offset="0" style="stop-color:#FFE000"/>
	<stop  offset="0.4087" style="stop-color:#FFBD00"/>
	<stop  offset="0.7754" style="stop-color:#FFA500"/>
	<stop  offset="1" style="stop-color:#FF9C00"/>
</linearGradient>
<path id="shape_yellow" class="st2" d="M82.8,69.5v0.6v0.5L98.3,86l0.4-0.2L117,75.4c5.2-3,5.2-7.9,0-10.8l0,0L98.7,54.2L98.4,54
	L82.8,69.5z"/>
<linearGradient id="shape_red_1_" gradientUnits="userSpaceOnUse" x1="9.1057" y1="-491.4894" x2="11.9167" y2="-491.4894" gradientTransform="matrix(-30.3444 30.3444 30.3444 30.3444 15280.3086 14716.2461)">
	<stop  offset="0" style="stop-color:#FF3A44"/>
	<stop  offset="1" style="stop-color:#C31162"/>
</linearGradient>
<path id="shape_red" class="st3" d="M36.1,116.7c1.7,1.8,4.6,2.1,7.8,0.2l0,0l54.8-31.1L82.8,70L36.1,116.7z"/>
<linearGradient id="shape_green_1_" gradientUnits="userSpaceOnUse" x1="18.7644" y1="-518.7463" x2="21.5755" y2="-518.7463" gradientTransform="matrix(13.55 13.55 13.55 -13.55 6799.0776 -7287.5464)">
	<stop  offset="0" style="stop-color:#32A071"/>
	<stop  offset="6.850000e-02" style="stop-color:#2DA771"/>
	<stop  offset="0.4762" style="stop-color:#15CF74"/>
	<stop  offset="0.8009" style="stop-color:#06E775"/>
	<stop  offset="1" style="stop-color:#00F076"/>
</linearGradient>
<path id="shape_green" class="st4" d="M36.1,23.3L82.8,70l15.8-15.8L43.8,23.1c-1.5-0.9-2.9-1.3-4.2-1.3l0,0
	C38.3,21.8,37,22.3,36.1,23.3"/>
</svg>
